<svg xmlns="http://www.w3.org/2000/svg" viewBox="0 0 209.17 230.6"><defs><style>.cls-1{fill:#296cdd;}</style></defs><g id="Layer_2" data-name="Layer 2"><g id="Layer_1-2" data-name="Layer 1"><path class="cls-1" d="M86.46,76.51h0a20.24,20.24,0,0,0,7.67,20.65l68.81,50.5A69.93,69.93,0,0,1,83.5,188.44c-.82-.19-1.63-.4-2.43-.61a69.31,69.31,0,0,1-36.16-23,19.86,19.86,0,0,0-11-6.68h0C15.11,154,1.5,175.88,13.73,190.71a110.39,110.39,0,0,0,169.17.79,109.45,109.45,0,0,0,23.4-47.06l2.87-12.82L118.29,64.69A20.24,20.24,0,0,0,86.46,76.51Z"/><path class="cls-1" d="M115.2,134.51l-69-51.57a69.85,69.85,0,0,1,117.93-17.3,20.61,20.61,0,0,0,11.41,6.87h0c18.67,4.18,32.18-17.61,20.05-32.4A110.32,110.32,0,0,0,2.87,86.17L0,99l91.05,68a20.23,20.23,0,0,0,31.82-11.81h0A20.23,20.23,0,0,0,115.2,134.51Z"/></g></g></svg>